<?xml version="1.0" standalone="no"?>
<!DOCTYPE svg PUBLIC "-//W3C//DTD SVG 20010904//EN"
 "http://www.w3.org/TR/2001/REC-SVG-20010904/DTD/svg10.dtd">
<svg version="1.0" xmlns="http://www.w3.org/2000/svg"
 width="720.000000pt" height="720.000000pt" viewBox="0 0 720.000000 720.000000"
 preserveAspectRatio="xMidYMid meet">
<metadata>
Created by potrace 1.14, written by Peter Selinger 2001-2017
</metadata>
<g transform="translate(0.000000,720.000000) scale(0.100000,-0.100000)"
fill="#000000" stroke="none">
<path d="M5170 6593 c-368 -37 -725 -174 -993 -380 -99 -76 -266 -243 -358
-357 l-84 -105 -6 173 c-4 143 -9 179 -23 201 -20 30 -71 55 -114 55 -35 0
-92 -37 -109 -70 -10 -19 -13 -185 -13 -724 l0 -698 -22 16 c-13 9 -72 46
-132 82 -609 368 -1292 323 -1811 -119 -352 -300 -575 -742 -624 -1237 -19
-191 -1 -498 44 -732 59 -312 208 -715 367 -993 278 -485 633 -853 1028 -1067
57 -31 97 -50 220 -101 14 -6 28 -10 32 -9 4 1 23 -5 42 -13 130 -55 430 -74
621 -41 87 15 230 57 331 97 28 11 38 10 85 -11 74 -31 234 -76 327 -91 193
-31 515 2 677 70 11 5 48 21 81 35 34 14 64 26 66 26 3 0 48 24 101 54 248
141 412 276 637 526 342 380 625 921 744 1420 38 157 63 318 77 482 21 254
-15 551 -97 795 -42 124 -133 319 -193 411 -23 35 -38 68 -35 74 4 6 3 8 -3 5
-11 -7 -150 160 -145 175 1 5 -1 7 -6 4 -5 -3 -24 11 -43 30 -108 113 -322
258 -489 332 -382 169 -790 169 -1219 -2 -74 -30 -237 -115 -301 -159 -25 -16
-51 -30 -57 -30 -7 0 -11 -3 -8 -5 3 -3 -3 -11 -13 -18 -16 -12 -17 -2 -22
154 -3 92 -4 220 -2 286 l3 118 32 -6 c18 -3 113 -8 212 -12 189 -7 275 0 458
37 349 70 641 238 872 501 18 21 35 35 39 33 3 -3 4 -2 2 1 -3 3 24 47 58 97
113 166 208 395 210 507 1 69 -29 121 -93 161 -44 29 -47 29 -180 27 -75 0
-152 -3 -171 -5z"/>
</g>
</svg>
